# xmcd
#
# Track frame offsets: 
#        150
#        15207
#        27067
#        35205
#        47720
#        61260
#        75920
#        86705
#        99487
#        115077
#        126520
#        140720
#        165717
#        174800
#
# Disc length: 2546 seconds
#
# Revision: 0
# Processed by: cddbd v1.5.2PL0 Copyright (c) Steve Scherf et al.
# Submitted via: ExactAudioCopy v0.99pb5
#
DISCID=aa09f00e
DTITLE=Various Artist - Soul Explosion
DYEAR=1995
DGENRE=Soul
TTITLE0=The Detroit Emeralds - Feel the Need in Me
TTITLE1=Fantastics - Something Old, Something New
TTITLE2=The Drifters - Saturday Night at the Movies
TTITLE3=Sam and Dave - Soul Man
TTITLE4=Eddie Floyd - Knock on Wood
TTITLE5=Rufus Thomas - Do the Funky Chicken
TTITLE6=Sam and Dave - Hold On I'm Coming
TTITLE7=The Detroit Emeralds - You Want It You Got It
TTITLE8=Rose Royce - Is It Love You're After
TTITLE9=Rose Royce - Car Wash
TTITLE10=Sister Sledge - We Are Family
TTITLE11=Sister Sledge - Lost in Music
TTITLE12=Tavares - Whodunit
TTITLE13=Tavares - Heaven Must Be Missing an Angel
EXTD=
EXTT0=
EXTT1=
EXTT2=
EXTT3=
EXTT4=
EXTT5=
EXTT6=
EXTT7=
EXTT8=
EXTT9=
EXTT10=
EXTT11=
EXTT12=
EXTT13=
PLAYORDER=
